<svg width="512" height="512" viewBox="0 0 512 512" fill="none" xmlns="http://www.w3.org/2000/svg">
<path fill-rule="evenodd" clip-rule="evenodd" d="M272.447 47.4438C316.166 45.0465 358.143 -10.7028 395.995 10.0109C435.714 31.7461 414.603 93.521 430.743 134.067C441.5 161.088 467.654 180.637 475.067 208.643C482.508 236.752 469.896 265.67 473.204 294.478C478.093 337.051 523.749 382.853 499.216 418.924C475.833 453.304 413.162 425.763 373.203 441.511C336.569 455.949 317.038 510.894 277.666 506.237C235.793 501.283 228.757 440.265 192.383 420.12C160.668 402.555 117.127 417.589 85.5345 399.829C50.7204 380.259 10.6525 353.173 5.76858 315.218C0.732232 276.077 51.1685 248.972 61.1954 210.677C70.844 173.827 45.5971 132.699 62.5713 98.2742C79.7682 63.3979 114.086 32.8702 153.586 23.3036C193.362 13.6701 231.459 49.6914 272.447 47.4438Z" fill="#2196F3" stroke="url(#paint0_linear_97_872)" stroke-width="10"/>
<defs>
<linearGradient id="paint0_linear_97_872" x1="234.624" y1="7.02668" x2="240.284" y2="506.995" gradientUnits="userSpaceOnUse">
<stop stop-color="#054A80"/>
<stop offset="1"/>
</linearGradient>
</defs>
</svg>
