<svg width="506" height="506" viewBox="0 0 506 506" fill="none" xmlns="http://www.w3.org/2000/svg">
<path fill-rule="evenodd" clip-rule="evenodd" d="M230.43 19.8087C260.538 28.5106 272.437 74.3903 300.825 89.2798C338.087 108.824 387.066 86.1644 417.857 118.116C451.26 152.777 481.421 211.873 467.538 262.275C453.075 314.779 389.152 314.6 353.949 350.129C326.5 377.833 315.953 423.953 285.282 446.221C249.076 472.508 207.618 493.262 165.682 486.815C120.97 479.941 68.0957 459.472 49.5651 409.98C30.3795 358.74 78.793 304.043 76.2344 247.917C74.034 199.648 23.2124 160.098 36.0865 114.311C48.6944 69.4707 97.9192 58.8918 134.366 41.169C165.185 26.1829 198.112 10.4679 230.43 19.8087Z" fill="#2196F3" stroke="url(#paint0_linear_97_874)" stroke-width="10"/>
<defs>
<linearGradient id="paint0_linear_97_874" x1="237.326" y1="17" x2="237.326" y2="488" gradientUnits="userSpaceOnUse">
<stop stop-color="#054A80"/>
<stop offset="1"/>
</linearGradient>
</defs>
</svg>
