<svg width="516" height="511" viewBox="0 0 516 511" fill="none" xmlns="http://www.w3.org/2000/svg">
<path fill-rule="evenodd" clip-rule="evenodd" d="M284.068 7.31485C320.643 -3.51785 355.321 33.2747 386.061 60.151C415.779 86.1344 438.518 120.316 457.403 158.866C478.421 201.773 497.069 246.005 501.551 295.909C506.99 356.468 526.522 440.068 485.699 473.926C440.276 511.597 381.691 448.102 327.419 440.326C298.229 436.143 270.077 433.118 241.061 438.872C180.283 450.926 121.177 524.465 65.3506 492.3C16.0008 463.867 -6.02314 370.337 10.3477 305.944C27.7022 237.681 99.7628 222.532 145.16 178.377C167.43 156.717 189.117 137.266 209.202 112.533C236.517 78.8942 246.638 18.401 284.068 7.31485Z" fill="#2196F3" stroke="url(#paint0_linear_97_882)" stroke-width="10"/>
<defs>
<linearGradient id="paint0_linear_97_882" x1="240.431" y1="5.37207" x2="240.431" y2="500.372" gradientUnits="userSpaceOnUse">
<stop stop-color="#054A80"/>
<stop offset="1"/>
</linearGradient>
</defs>
</svg>
