<svg width="516" height="516" viewBox="0 0 516 516" fill="none" xmlns="http://www.w3.org/2000/svg">
<path fill-rule="evenodd" clip-rule="evenodd" d="M291.478 57.174C322.899 65.9057 354.696 60.7097 385.834 70.6521C428.359 84.2301 487.639 80.436 506.223 125.741C524.775 170.965 475.249 216.224 465.491 264.836C456.825 308.003 480.358 363.138 452.355 394.09C423.901 425.54 372.397 389.719 336.011 407.951C290.31 430.851 270.314 508.896 220.337 510.349C172.935 511.727 144.328 451.167 109.728 414.527C70.9651 373.48 10.5373 342.779 5.64467 283.003C0.721645 222.857 57.6223 181.61 86.5034 130.783C110.745 88.1215 118.941 23.7224 161.7 8.36727C206.049 -7.55912 246.289 44.6166 291.478 57.174Z" fill="#2196F3" stroke="url(#paint0_linear_97_887)" stroke-width="10"/>
<defs>
<linearGradient id="paint0_linear_97_887" x1="240.31" y1="5.37207" x2="240.31" y2="510.372" gradientUnits="userSpaceOnUse">
<stop stop-color="#054A80"/>
<stop offset="1"/>
</linearGradient>
</defs>
</svg>
