<svg width="80" height="64" viewBox="0 0 80 64" fill="none" xmlns="http://www.w3.org/2000/svg">
<path d="M0 3C0 1.3375 1.48611 0 3.33333 0H9.65278C12.7083 0 15.4167 1.6 16.6806 4H73.7639C77.4167 4 80.0833 7.125 79.125 10.3L73.4306 29.3375C72.25 33.2625 68.2917 36 63.7778 36H23.7083L24.4583 39.5625C24.7639 40.975 26.1389 42 27.7361 42H67.7778C69.625 42 71.1111 43.3375 71.1111 45C71.1111 46.6625 69.625 48 67.7778 48H27.7361C22.9306 48 18.8056 44.925 17.9167 40.6875L10.75 6.8125C10.6528 6.3375 10.1944 6 9.65278 6H3.33333C1.48611 6 0 4.6625 0 3ZM17.7778 58C17.7778 57.2121 17.9502 56.4319 18.2852 55.7039C18.6203 54.9759 19.1113 54.3145 19.7304 53.7574C20.3495 53.2002 21.0844 52.7583 21.8932 52.4567C22.7021 52.1552 23.569 52 24.4444 52C25.3199 52 26.1868 52.1552 26.9957 52.4567C27.8045 52.7583 28.5394 53.2002 29.1585 53.7574C29.7775 54.3145 30.2686 54.9759 30.6036 55.7039C30.9387 56.4319 31.1111 57.2121 31.1111 58C31.1111 58.7879 30.9387 59.5681 30.6036 60.2961C30.2686 61.0241 29.7775 61.6855 29.1585 62.2426C28.5394 62.7998 27.8045 63.2417 26.9957 63.5433C26.1868 63.8448 25.3199 64 24.4444 64C23.569 64 22.7021 63.8448 21.8932 63.5433C21.0844 63.2417 20.3495 62.7998 19.7304 62.2426C19.1113 61.6855 18.6203 61.0241 18.2852 60.2961C17.9502 59.5681 17.7778 58.7879 17.7778 58ZM64.4445 52C66.2126 52 67.9082 52.6321 69.1585 53.7574C70.4087 54.8826 71.1111 56.4087 71.1111 58C71.1111 59.5913 70.4087 61.1174 69.1585 62.2426C67.9082 63.3679 66.2126 64 64.4445 64C62.6763 64 60.9806 63.3679 59.7304 62.2426C58.4802 61.1174 57.7778 59.5913 57.7778 58C57.7778 56.4087 58.4802 54.8826 59.7304 53.7574C60.9806 52.6321 62.6763 52 64.4445 52Z" fill="white"/>
</svg>
