<svg width="80" height="64" viewBox="0 0 80 64" fill="none" xmlns="http://www.w3.org/2000/svg">
<path d="M62 60C71.9375 60 80 51.9375 80 42C80 34.15 74.975 27.475 67.975 25.0125C67.9875 24.675 68 24.3375 68 24C68 12.95 59.05 4 48 4C40.5875 4 34.125 8.025 30.6625 14.025C28.6923 12.7029 26.3727 11.9979 24 12C17.375 12 12 17.375 12 24C12 25.525 12.2875 26.975 12.8 28.325C5.5 29.8 0 36.2625 0 44C0 52.8375 7.1625 60 16 60H62ZM52.125 32.875C53.3 34.05 53.3 35.95 52.125 37.1125C50.95 38.275 49.05 38.2875 47.8875 37.1125L43.0125 32.2375L43 49C43 50.6625 41.6625 52 40 52C38.3375 52 37 50.6625 37 49V32.2375L32.125 37.1125C30.95 38.2875 29.05 38.2875 27.8875 37.1125C26.725 35.9375 26.7125 34.0375 27.8875 32.875L37.8875 22.875C39.0625 21.7 40.9625 21.7 42.125 22.875L52.125 32.875Z" fill="white"/>
</svg>
