<svg width="80" height="64" viewBox="0 0 80 64" fill="none" xmlns="http://www.w3.org/2000/svg">
<path d="M72 12C72 7.5875 68.4125 4 64 4H16C11.5875 4 8 7.5875 8 12V44H16V12H64V44H72V12ZM80 50.4C80 49.075 78.925 48 77.6 48H2.4C1.075 48 0 49.075 0 50.4C0 55.7 4.3 60 9.6 60H70.4C75.7 60 80 55.7 80 50.4ZM44.875 26.125L48.75 30L44.875 33.875C43.7 35.05 43.7 36.95 44.875 38.1125C46.05 39.275 47.95 39.2875 49.1125 38.1125L55.1125 32.1125C56.2875 30.9375 56.2875 29.0375 55.1125 27.875L49.1125 21.875C47.9375 20.7 46.0375 20.7 44.875 21.875C43.7125 23.05 43.7 24.95 44.875 26.1125V26.125ZM30.875 21.875L24.875 27.875C23.7 29.05 23.7 30.95 24.875 32.1125L30.875 38.1125C32.05 39.2875 33.95 39.2875 35.1125 38.1125C36.275 36.9375 36.2875 35.0375 35.1125 33.875L31.2375 30L35.1125 26.125C36.2875 24.95 36.2875 23.05 35.1125 21.8875C33.9375 20.725 32.0375 20.7125 30.875 21.8875V21.875Z" fill="white"/>
</svg>
