<svg width="49" height="65" viewBox="0 0 49 65" fill="none" xmlns="http://www.w3.org/2000/svg">
<path d="M2.04175 8.125C2.04175 3.64355 5.70399 0 10.2084 0H38.7917C43.2962 0 46.9584 3.64355 46.9584 8.125V56.875C46.9584 61.3564 43.2962 65 38.7917 65H10.2084C5.70399 65 2.04175 61.3564 2.04175 56.875V8.125ZM28.5834 56.875C28.5834 55.7976 28.1532 54.7642 27.3874 54.0024C26.6217 53.2405 25.583 52.8125 24.5001 52.8125C23.4171 52.8125 22.3785 53.2405 21.6127 54.0024C20.847 54.7642 20.4167 55.7976 20.4167 56.875C20.4167 57.9524 20.847 58.9858 21.6127 59.7476C22.3785 60.5095 23.4171 60.9375 24.5001 60.9375C25.583 60.9375 26.6217 60.5095 27.3874 59.7476C28.1532 58.9858 28.5834 57.9524 28.5834 56.875ZM38.7917 8.125H10.2084V48.75H38.7917V8.125Z" fill="white"/>
</svg>
