<svg width="80" height="80" viewBox="0 0 80 80" fill="none" xmlns="http://www.w3.org/2000/svg">
<path d="M55 40C55 43.4688 54.8125 46.8125 54.4844 50H25.5312C25.1875 46.8125 25.0156 43.4688 25.0156 40C25.0156 36.5312 25.2031 33.1875 25.5312 30H54.4844C54.8281 33.1875 55 36.5312 55 40ZM59.5 30H78.7344C79.5625 33.2031 80 36.5469 80 40C80 43.4531 79.5625 46.7969 78.7344 50H59.5C59.8281 46.7812 60 43.4375 60 40C60 36.5625 59.8281 33.2188 59.5 30ZM77.0938 25H58.8594C57.2969 15.0156 54.2031 6.65625 50.2188 1.3125C62.4531 4.54688 72.4062 13.4219 77.0781 25H77.0938ZM53.7969 25H26.2031C27.1562 19.3125 28.625 14.2813 30.4219 10.2031C32.0625 6.51563 33.8906 3.84375 35.6562 2.15625C37.4062 0.5 38.8594 0 40 0C41.1406 0 42.5938 0.5 44.3438 2.15625C46.1094 3.84375 47.9375 6.51563 49.5781 10.2031C51.3906 14.2656 52.8438 19.2969 53.7969 25ZM21.1406 25H2.90625C7.59375 13.4219 17.5312 4.54688 29.7812 1.3125C25.7969 6.65625 22.7031 15.0156 21.1406 25ZM1.26562 30H20.5C20.1719 33.2188 20 36.5625 20 40C20 43.4375 20.1719 46.7812 20.5 50H1.26562C0.4375 46.7969 0 43.4531 0 40C0 36.5469 0.4375 33.2031 1.26562 30ZM30.4219 69.7812C28.6094 65.7188 27.1562 60.6875 26.2031 55H53.7969C52.8438 60.6875 51.375 65.7188 49.5781 69.7812C47.9375 73.4688 46.1094 76.1406 44.3438 77.8281C42.5938 79.5 41.1406 80 40 80C38.8594 80 37.4062 79.5 35.6562 77.8438C33.8906 76.1562 32.0625 73.4844 30.4219 69.7969V69.7812ZM21.1406 55C22.7031 64.9844 25.7969 73.3438 29.7812 78.6875C17.5312 75.4531 7.59375 66.5781 2.90625 55H21.1406ZM77.0938 55C72.4062 66.5781 62.4688 75.4531 50.2344 78.6875C54.2188 73.3438 57.2969 64.9844 58.875 55H77.1094H77.0938Z" fill="white"/>
</svg>
